<svg width="26" height="26" viewBox="0 0 26 26" fill="none" xmlns="http://www.w3.org/2000/svg">
<path d="M13 1.75C11.5082 3.24184 10.6701 5.26522 10.6701 7.375C10.6701 9.48478 11.5082 11.5082 13 13C14.4918 14.4918 16.5152 15.33 18.625 15.33C20.7348 15.33 22.7582 14.4918 24.25 13C24.25 15.225 23.5902 17.4001 22.354 19.2502C21.1179 21.1002 19.3609 22.5422 17.3052 23.3936C15.2495 24.2451 12.9875 24.4679 10.8052 24.0338C8.62295 23.5997 6.61839 22.5283 5.04505 20.9549C3.47171 19.3816 2.40025 17.3771 1.96617 15.1948C1.53209 13.0125 1.75487 10.7505 2.60636 8.69481C3.45785 6.63914 4.89979 4.88213 6.74984 3.64597C8.59989 2.4098 10.775 1.75 13 1.75Z" stroke="#999999" stroke-width="2" stroke-linecap="round" stroke-linejoin="round"/>
</svg>
